<?xml version="1.0" encoding="UTF-8"?>
<!-- Created with Inkscape (http://www.inkscape.org/) -->
<svg width="100" height="100" version="1.1" viewBox="0 0 26.458333 26.458334" xmlns="http://www.w3.org/2000/svg" xmlns:cc="http://creativecommons.org/ns#" xmlns:dc="http://purl.org/dc/elements/1.1/" xmlns:rdf="http://www.w3.org/1999/02/22-rdf-syntax-ns#">
 <metadata>
  <rdf:RDF>
   <cc:Work rdf:about="">
    <dc:format>image/svg+xml</dc:format>
    <dc:type rdf:resource="http://purl.org/dc/dcmitype/StillImage"/>
    <dc:title/>
   </cc:Work>
  </rdf:RDF>
 </metadata>
 <g transform="translate(0 -270.54)">
  <rect transform="rotate(232.74)" x="-78.079" y="133.44" width="51.858" height="8.4667" rx="3.7042" ry="3.7042" fill="#fca" stroke-width="0"/>
  <rect x="219.6" y="13.367" width="130.7" height="11.377" rx="0" ry="0" stroke-width="0"/>
  <g transform="matrix(.20548 0 0 -.15884 -6.0956 303.94)" fill="#666">
   <path transform="matrix(.20454 0 0 .26458 14.493 0)" d="m382 429.69c-45.288 45.288-137.92 133.78-137.92 133.78-5.5671 5.4003-4.7323 13.024 1.8711 17.092l8.5332 5.2559c6.6034 4.0682 16.4 2.996 21.967-2.4043l121.33-117.7 121.33 117.7c5.5671 5.4003 15.365 6.4725 21.969 2.4043l8.5312-5.2559c6.6034-4.0682 7.4382-11.692 1.8711-17.092 0 0-91.944-89.189-137.92-133.78-7.5807-7.3536-23.925-7.6472-31.572 0z" fill="#666" stroke-width="0"/>
  </g>
 </g>
</svg>
