<?xml version="1.0" encoding="UTF-8"?>
<svg width="100" height="100" version="1.1" viewBox="0 0 26.458333 26.458334" xmlns="http://www.w3.org/2000/svg">
 <g transform="translate(0 -270.54)">
  <rect transform="rotate(232.74)" x="-78.079" y="133.44" width="51.858" height="8.4667" rx="3.7042" ry="3.7042" fill="#fca" stroke-width="0"/>
  <rect x="219.6" y="13.367" width="130.7" height="11.377" rx="0" ry="0" stroke-width="0"/>
  <path class="cls-121" d="m17.492 276.31h-1.6518v-0.41367a0.41296 0.41296 0 1 0 -0.82592 0v0.41367h-4.1296v-0.41367a0.41652 0.41652 0 0 0 -0.83304 0v0.41367h-1.6518a2.0477 2.0477 0 0 0 -2.0648 2.0648v7.449a2.0477 2.0477 0 0 0 2.0648 2.0648h9.0923a2.0499 2.0499 0 0 0 2.0719 -2.0648v-7.4462a2.0499 2.0499 0 0 0 -2.0719 -2.0676zm-10.331 2.0648a1.2702 1.2702 0 0 1 1.2389 -1.2403h1.6518v0.41367a0.41652 0.41652 0 0 0 0.83304 0v-0.41082h4.1296v0.41367a0.41296 0.41296 0 0 0 0.82592 0v-0.41367h1.6518a1.2766 1.2766 0 0 1 1.246 1.2403v1.2403h-11.577v-1.2403zm11.577 7.4433a1.2766 1.2766 0 0 1 -1.246 1.2403h-9.0923a1.2702 1.2702 0 0 1 -1.2389 -1.2403v-5.3756h11.577zm-9.5124 0a0.76825 0.76825 0 0 0 0.58384 -0.24785 0.81382 0.81382 0 0 0 0 -1.1584 0.80314 0.80314 0 0 0 -1.1606 0 0.75757 0.75757 0 0 0 -0.24919 0.57885 0.90496 0.90496 0 0 0 0.24919 0.57959 0.7533 0.7533 0 0 0 0.57672 0.2535zm0-2.4813a0.76825 0.76825 0 0 0 0.58384 -0.24784 0.81382 0.81382 0 0 0 0 -1.1584 0.80314 0.80314 0 0 0 -1.1606 0 0.82735 0.82735 0 0 0 0.57672 1.409zm2.4849 2.4813a0.74262 0.74262 0 0 0 0.57672 -0.24785 0.79744 0.79744 0 0 0 0 -1.1584 0.80314 0.80314 0 0 0 -1.1606 0 0.81382 0.81382 0 0 0 0 1.1584 0.76825 0.76825 0 0 0 0.58384 0.2535zm0-2.4813a0.74262 0.74262 0 0 0 0.57672 -0.24784 0.79744 0.79744 0 0 0 0 -1.1584 0.80314 0.80314 0 0 0 -1.1606 0 0.81382 0.81382 0 0 0 0 1.1584 0.76825 0.76825 0 0 0 0.58384 0.25053zm2.4778 2.4813a0.74262 0.74262 0 0 0 0.57672 -0.24785 0.79744 0.79744 0 0 0 0 -1.1584 0.79531 0.79531 0 0 0 -1.1534 0 0.79744 0.79744 0 0 0 0 1.1584 0.74262 0.74262 0 0 0 0.57672 0.2535zm0-2.4813a0.74262 0.74262 0 0 0 0.57672 -0.24784 0.75757 0.75757 0 0 0 0.24919 -0.57884 0.90496 0.90496 0 0 0 -0.24919 -0.57957 0.79531 0.79531 0 0 0 -1.1534 0 0.79744 0.79744 0 0 0 0 1.1584 0.74262 0.74262 0 0 0 0.57672 0.25053zm2.4778 2.4813a0.76825 0.76825 0 0 0 0.58384 -0.24785 0.81382 0.81382 0 0 0 0 -1.1584 0.80314 0.80314 0 0 0 -1.1606 0 0.75757 0.75757 0 0 0 -0.24919 0.57885 0.90496 0.90496 0 0 0 0.24919 0.57959 0.74262 0.74262 0 0 0 0.57672 0.2535zm0-2.4813a0.76825 0.76825 0 0 0 0.58384 -0.24784 0.75116 0.75116 0 0 0 0.24209 -0.57884 0.89428 0.89428 0 0 0 -0.24209 -0.57957 0.80314 0.80314 0 0 0 -1.1606 0 0.79744 0.79744 0 0 0 0 1.1584 0.74262 0.74262 0 0 0 0.57672 0.25053z" stroke-width=".712" data-name="Forma 1"/>
 </g>
</svg>
