<svg xmlns="http://www.w3.org/2000/svg" width="8" height="16" viewBox="0 0 8 16"><path d="M1231.267,19.365a1.671,1.671,0,0,1,.286-.137,2.7,2.7,0,0,1,.322-.1l.656-.126h.429l3.028.229H1236l-.31,2.7h-.012l-1.669-.171h-.048l-.167.023-.06.023-.191.092a.156.156,0,0,0-.1.057l-.143.149a.6.6,0,0,0-.083.137.856.856,0,0,0-.06.149,1.108,1.108,0,0,0-.036.171,1.155,1.155,0,0,0-.012.172l.024,1.692,2.456.023-.358,2.676-2.122.08v7.788L1233.1,35h-3.314V27.131H1228V24.443h1.717V24.42l.012-.034.06-2.87.024-.16v-.08l.024-.08a.6.6,0,0,1,.048-.172.51.51,0,0,1,.071-.149,1.207,1.207,0,0,1,.131-.309,1.578,1.578,0,0,1,.179-.286,1.442,1.442,0,0,1,.2-.24,2.082,2.082,0,0,1,.227-.229V19.8Z" transform="translate(-1228 -18.999)" fill="#373737"/></svg>