<svg xmlns="http://www.w3.org/2000/svg" width="16" height="16" viewBox="0 0 16 16"><path d="M1365.908,19h-9.816A3.1,3.1,0,0,0,1353,22.091v9.816A3.1,3.1,0,0,0,1356.092,35h9.816A3.1,3.1,0,0,0,1369,31.907V22.091A3.1,3.1,0,0,0,1365.908,19Zm.887,1.844h.354v2.712l-2.7.009-.009-2.712Zm-8.078,4.514a2.812,2.812,0,1,1-.533,1.642A2.814,2.814,0,0,1,1358.717,25.357Zm8.724,6.551a1.534,1.534,0,0,1-1.533,1.533h-9.816a1.534,1.534,0,0,1-1.533-1.533V25.357h2.388a4.375,4.375,0,1,0,8.1,0h2.389Z" transform="translate(-1353 -18.999)" fill="#373737"/></svg>