<svg xmlns="http://www.w3.org/2000/svg" width="16" height="16" viewBox="0 0 16 16"><path d="M1334,28.809V35h-3.429V29.223c0-1.451-.5-2.441-1.738-2.441a1.887,1.887,0,0,0-1.76,1.313,2.562,2.562,0,0,0-.114.875V35h-3.43s.046-9.783,0-10.8h3.43v1.53l-.023.035h.023v-.035a3.385,3.385,0,0,1,3.091-1.784C1332.308,23.95,1334,25.493,1334,28.809ZM1319.941,19a1.866,1.866,0,1,0-.046,3.731h.023a1.867,1.867,0,1,0,.023-3.731ZM1318.2,35h3.429V24.2H1318.2Z" transform="translate(-1318 -18.999)" fill="#373737"/></svg>