<svg xmlns="http://www.w3.org/2000/svg" width="12" height="15.966" viewBox="0 0 12 15.966"><path d="M1394.363,20c-4.23,0-6.363,3.123-6.363,5.729,0,1.577.58,2.98,1.823,3.5a.306.306,0,0,0,.446-.23c.041-.161.138-.567.182-.737a.454.454,0,0,0-.128-.511,2.693,2.693,0,0,1-.588-1.8,4.28,4.28,0,0,1,4.384-4.392,3.378,3.378,0,0,1,3.7,3.514c0,2.645-1.136,4.876-2.823,4.876a1.408,1.408,0,0,1-1.405-1.766,20.151,20.151,0,0,0,.786-3.254,1.215,1.215,0,0,0-1.2-1.377c-.952,0-1.717,1.015-1.717,2.374a3.618,3.618,0,0,0,.284,1.451l-1.145,5a10.6,10.6,0,0,0-.027,3.485.118.118,0,0,0,.212.053,9.873,9.873,0,0,0,1.607-3c.109-.408.626-2.521.626-2.521a2.532,2.532,0,0,0,2.175,1.143c2.862,0,4.8-2.688,4.8-6.285A5.39,5.39,0,0,0,1394.363,20Z" transform="translate(-1388 -19.999)" fill="#373737"/></svg>