<?xml version="1.0" encoding="UTF-8"?>
<svg width="100" height="100" version="1.1" viewBox="0 0 26.458333 26.458334" xmlns="http://www.w3.org/2000/svg" xmlns:cc="http://creativecommons.org/ns#" xmlns:dc="http://purl.org/dc/elements/1.1/" xmlns:rdf="http://www.w3.org/1999/02/22-rdf-syntax-ns#">
 <metadata>
  <rdf:RDF>
   <cc:Work rdf:about="">
    <dc:format>image/svg+xml</dc:format>
    <dc:type rdf:resource="http://purl.org/dc/dcmitype/StillImage"/>
    <dc:title/>
   </cc:Work>
  </rdf:RDF>
 </metadata>
 <g transform="translate(0 -270.54)" stroke-width="0">
  <rect transform="rotate(232.74)" x="-78.079" y="133.44" width="51.858" height="8.4667" rx="3.7042" ry="3.7042" fill="#fca"/>
  <rect x="219.6" y="13.367" width="130.7" height="11.377" rx="0" ry="0"/>
  <g transform="matrix(.50148 0 0 .50148 -.59783 150.59)" fill="#999">
   <path d="m24.087 251.49a11.551 11.551 0 0 0 -11.551 11.551 11.551 11.551 0 0 0 11.551 11.551 11.551 11.551 0 0 0 11.551 -11.551 11.551 11.551 0 0 0 -11.551 -11.551zm0 2.1794a9.3715 9.3715 0 0 1 9.3715 9.3715 9.3715 9.3715 0 0 1 -9.3715 9.3715 9.3715 9.3715 0 0 1 -9.3715 -9.3715 9.3715 9.3715 0 0 1 9.3715 -9.3715z"/>
   <rect transform="matrix(.60272 .79796 -.82938 .55869 0 0)" x="241.58" y="137.58" width="13.489" height="2.4086" rx="4.4523" ry="4.4556"/>
  </g>
 </g>
</svg>
