<?xml version="1.0" encoding="UTF-8"?>
<svg width="100" height="100" version="1.1" viewBox="0 0 26.458333 26.458334" xmlns="http://www.w3.org/2000/svg" xmlns:cc="http://creativecommons.org/ns#" xmlns:dc="http://purl.org/dc/elements/1.1/" xmlns:rdf="http://www.w3.org/1999/02/22-rdf-syntax-ns#">
 <metadata>
  <rdf:RDF>
   <cc:Work rdf:about="">
    <dc:format>image/svg+xml</dc:format>
    <dc:type rdf:resource="http://purl.org/dc/dcmitype/StillImage"/>
    <dc:title/>
   </cc:Work>
  </rdf:RDF>
 </metadata>
 <g transform="translate(0 -270.54)">
  <rect transform="rotate(232.74)" x="-78.079" y="133.44" width="51.858" height="8.4667" rx="3.7042" ry="3.7042" fill="#fca" stroke-width="0"/>
  <rect x="219.6" y="13.367" width="130.7" height="11.377" rx="0" ry="0" stroke-width="0"/>
  <path class="cls-65" d="m16.917 284.77a2.5061 2.5061 0 0 0 -1.987 0.98184l-3.8539-2.156a2.513 2.513 0 0 0 0.13733 -0.82393 2.4553 2.4553 0 0 0 -0.14213 -0.83078l3.8512-2.156a2.5048 2.5048 0 1 0 -0.51839 -1.5243 2.41 2.41 0 0 0 0.14281 0.83079l-3.8491 2.156a2.4876 2.4876 0 0 0 -1.9912 -0.98872 2.5096 2.5096 0 1 0 1.996 4.0304l3.8512 2.156a2.4793 2.4793 0 0 0 -0.14556 0.83766 2.5089 2.5089 0 1 0 2.5089 -2.513zm0-8.2256a1.7234 1.7234 0 1 1 -1.722 1.7234 1.722 1.722 0 0 1 1.722 -1.7234zm-8.2036 7.9441a1.72 1.72 0 1 1 1.7213 -1.7165 1.72 1.72 0 0 1 -1.7213 1.7165zm8.2036 4.511a1.7234 1.7234 0 1 1 1.722 -1.7234 1.7261 1.7261 0 0 1 -1.722 1.7234z" stroke-width=".68661" data-name="Shape 1 copy 13"/>
 </g>
</svg>
