<?xml version="1.0" encoding="UTF-8"?>
<svg width="100" height="100" version="1.1" viewBox="0 0 26.458333 26.458334" xmlns="http://www.w3.org/2000/svg" xmlns:cc="http://creativecommons.org/ns#" xmlns:dc="http://purl.org/dc/elements/1.1/" xmlns:rdf="http://www.w3.org/1999/02/22-rdf-syntax-ns#">
 <metadata>
  <rdf:RDF>
   <cc:Work rdf:about="">
    <dc:format>image/svg+xml</dc:format>
    <dc:type rdf:resource="http://purl.org/dc/dcmitype/StillImage"/>
    <dc:title/>
   </cc:Work>
  </rdf:RDF>
 </metadata>
 <g transform="translate(0 -270.54)">
  <rect transform="rotate(232.74)" x="-78.079" y="133.44" width="51.858" height="8.4667" rx="3.7042" ry="3.7042" fill="#fca" stroke-width="0"/>
  <rect x="219.6" y="13.367" width="130.7" height="11.377" rx="0" ry="0" stroke-width="0"/>
  <path class="cls-63" d="m18.868 283.78a8.1646 8.1646 0 0 0 -2.7812 -2.2757 8.0661 8.0661 0 0 0 -3.5164 -0.84791h-0.20624a8.07 8.07 0 0 0 -3.5164 0.84791 8.1679 8.1679 0 0 0 -2.7806 2.2757 1.0055 1.0055 0 0 0 0 1.2418 8.2313 8.2313 0 0 0 2.7806 2.2757 7.9868 7.9868 0 0 0 3.5164 0.84245 1.2773 1.2773 0 0 0 0.20458 0 7.9868 7.9868 0 0 0 3.5164 -0.84245 8.228 8.228 0 0 0 2.7812 -2.2757 1.0055 1.0055 0 0 0 0.0017 -1.2418zm-9.7778 3.0361a7.6821 7.6821 0 0 1 -2.5974 -2.1225 0.47647 0.47647 0 0 1 0 -0.58533 7.6821 7.6821 0 0 1 2.5974 -2.1225 7.541 7.541 0 0 1 0.87526 -0.36652 3.7286 3.7286 0 0 0 0 5.5634 7.541 7.541 0 0 1 -0.87526 -0.36652zm3.378 0.78775a3.2057 3.2057 0 1 1 3.2117 -3.2057 3.2095 3.2095 0 0 1 -3.2117 3.2057zm5.9753-2.9103a7.6799 7.6799 0 0 1 -2.5968 2.1225 7.4945 7.4945 0 0 1 -0.87527 0.36652 3.7352 3.7352 0 0 0 0 -5.5689 8.6854 8.6854 0 0 1 0.87527 0.37199 7.6799 7.6799 0 0 1 2.5968 2.1225 0.47647 0.47647 0 0 1 0 0.58533zm-5.9753-1.663a1.3703 1.3703 0 1 0 1.3747 1.3676 1.372 1.372 0 0 0 -1.3747 -1.3676zm0 2.2046a0.83424 0.83424 0 1 1 0.83643 -0.83697 0.83479 0.83479 0 0 1 -0.83643 0.83697z" stroke-width=".54704" data-name="Shape 1 copy 13"/>
 </g>
</svg>
